<mxfile host="Electron" agent="Mozilla/5.0 (X11; Linux x86_64) AppleWebKit/537.36 (KHTML, like Gecko) draw.io/24.7.17 Chrome/128.0.6613.186 Electron/32.2.6 Safari/537.36" version="24.7.17">
  <diagram name="Page-1" id="1MujfrJZCeBvBD6ZL1sf">
    <mxGraphModel dx="928" dy="500" grid="1" gridSize="10" guides="1" tooltips="1" connect="1" arrows="1" fold="1" page="1" pageScale="1" pageWidth="827" pageHeight="1169" math="0" shadow="0">
      <root>
        <mxCell id="0" />
        <mxCell id="1" parent="0" />
        <mxCell id="KnPEYLReO1t2_3ygM1mG-2" value="Player" style="shape=umlActor;verticalLabelPosition=bottom;verticalAlign=top;html=1;outlineConnect=0;" vertex="1" parent="1">
          <mxGeometry x="220" y="290" width="30" height="60" as="geometry" />
        </mxCell>
        <mxCell id="KnPEYLReO1t2_3ygM1mG-3" value="Systeme de marché" style="whiteSpace=wrap;html=1;aspect=fixed;" vertex="1" parent="1">
          <mxGeometry x="440" y="245" width="150" height="150" as="geometry" />
        </mxCell>
        <mxCell id="KnPEYLReO1t2_3ygM1mG-5" value="" style="shape=flexArrow;endArrow=classic;html=1;rounded=0;" edge="1" parent="1">
          <mxGeometry width="50" height="50" relative="1" as="geometry">
            <mxPoint x="290" y="270" as="sourcePoint" />
            <mxPoint x="410" y="270" as="targetPoint" />
          </mxGeometry>
        </mxCell>
        <mxCell id="KnPEYLReO1t2_3ygM1mG-6" value="" style="shape=flexArrow;endArrow=classic;html=1;rounded=0;" edge="1" parent="1">
          <mxGeometry width="50" height="50" relative="1" as="geometry">
            <mxPoint x="410" y="370" as="sourcePoint" />
            <mxPoint x="290" y="370" as="targetPoint" />
          </mxGeometry>
        </mxCell>
        <mxCell id="KnPEYLReO1t2_3ygM1mG-7" value="Vendre" style="text;html=1;align=center;verticalAlign=middle;whiteSpace=wrap;rounded=0;" vertex="1" parent="1">
          <mxGeometry x="320" y="220" width="60" height="30" as="geometry" />
        </mxCell>
        <mxCell id="KnPEYLReO1t2_3ygM1mG-8" value="Acheter" style="text;html=1;align=center;verticalAlign=middle;whiteSpace=wrap;rounded=0;" vertex="1" parent="1">
          <mxGeometry x="320" y="390" width="60" height="30" as="geometry" />
        </mxCell>
        <mxCell id="KnPEYLReO1t2_3ygM1mG-15" style="edgeStyle=orthogonalEdgeStyle;rounded=0;orthogonalLoop=1;jettySize=auto;html=1;" edge="1" parent="1" source="KnPEYLReO1t2_3ygM1mG-9" target="KnPEYLReO1t2_3ygM1mG-12">
          <mxGeometry relative="1" as="geometry" />
        </mxCell>
        <mxCell id="KnPEYLReO1t2_3ygM1mG-9" value="Supprimer item de l&#39;inventaire" style="rounded=1;whiteSpace=wrap;html=1;" vertex="1" parent="1">
          <mxGeometry x="590" y="130" width="120" height="60" as="geometry" />
        </mxCell>
        <mxCell id="KnPEYLReO1t2_3ygM1mG-13" style="edgeStyle=orthogonalEdgeStyle;rounded=0;orthogonalLoop=1;jettySize=auto;html=1;" edge="1" parent="1" source="KnPEYLReO1t2_3ygM1mG-10" target="KnPEYLReO1t2_3ygM1mG-11">
          <mxGeometry relative="1" as="geometry" />
        </mxCell>
        <mxCell id="KnPEYLReO1t2_3ygM1mG-10" value="Ajouter l&#39;item à la liste de vente" style="rounded=1;whiteSpace=wrap;html=1;" vertex="1" parent="1">
          <mxGeometry x="290" y="130" width="120" height="60" as="geometry" />
        </mxCell>
        <mxCell id="KnPEYLReO1t2_3ygM1mG-14" style="edgeStyle=orthogonalEdgeStyle;rounded=0;orthogonalLoop=1;jettySize=auto;html=1;" edge="1" parent="1" source="KnPEYLReO1t2_3ygM1mG-11" target="KnPEYLReO1t2_3ygM1mG-9">
          <mxGeometry relative="1" as="geometry" />
        </mxCell>
        <mxCell id="KnPEYLReO1t2_3ygM1mG-11" value="Valider la liste de vente" style="rounded=1;whiteSpace=wrap;html=1;" vertex="1" parent="1">
          <mxGeometry x="440" y="130" width="120" height="60" as="geometry" />
        </mxCell>
        <mxCell id="KnPEYLReO1t2_3ygM1mG-12" value="Ajouter solde au compte" style="rounded=1;whiteSpace=wrap;html=1;" vertex="1" parent="1">
          <mxGeometry x="740" y="130" width="120" height="60" as="geometry" />
        </mxCell>
        <mxCell id="KnPEYLReO1t2_3ygM1mG-17" value="Ajouter les items à l&#39;inventaire" style="rounded=1;whiteSpace=wrap;html=1;" vertex="1" parent="1">
          <mxGeometry x="740" y="440" width="120" height="60" as="geometry" />
        </mxCell>
        <mxCell id="KnPEYLReO1t2_3ygM1mG-18" style="edgeStyle=orthogonalEdgeStyle;rounded=0;orthogonalLoop=1;jettySize=auto;html=1;" edge="1" parent="1" source="KnPEYLReO1t2_3ygM1mG-19" target="KnPEYLReO1t2_3ygM1mG-21">
          <mxGeometry relative="1" as="geometry" />
        </mxCell>
        <mxCell id="KnPEYLReO1t2_3ygM1mG-19" value="Ajouter l&#39;item à la liste d&#39;achat" style="rounded=1;whiteSpace=wrap;html=1;" vertex="1" parent="1">
          <mxGeometry x="290" y="440" width="120" height="60" as="geometry" />
        </mxCell>
        <mxCell id="KnPEYLReO1t2_3ygM1mG-23" style="edgeStyle=orthogonalEdgeStyle;rounded=0;orthogonalLoop=1;jettySize=auto;html=1;" edge="1" parent="1" source="KnPEYLReO1t2_3ygM1mG-21" target="KnPEYLReO1t2_3ygM1mG-22">
          <mxGeometry relative="1" as="geometry" />
        </mxCell>
        <mxCell id="KnPEYLReO1t2_3ygM1mG-21" value="Valider la liste d&#39;achat" style="rounded=1;whiteSpace=wrap;html=1;" vertex="1" parent="1">
          <mxGeometry x="440" y="440" width="120" height="60" as="geometry" />
        </mxCell>
        <mxCell id="KnPEYLReO1t2_3ygM1mG-24" style="edgeStyle=orthogonalEdgeStyle;rounded=0;orthogonalLoop=1;jettySize=auto;html=1;" edge="1" parent="1" source="KnPEYLReO1t2_3ygM1mG-22" target="KnPEYLReO1t2_3ygM1mG-17">
          <mxGeometry relative="1" as="geometry" />
        </mxCell>
        <mxCell id="KnPEYLReO1t2_3ygM1mG-22" value="Supprimer le solde du compte" style="rounded=1;whiteSpace=wrap;html=1;" vertex="1" parent="1">
          <mxGeometry x="590" y="440" width="120" height="60" as="geometry" />
        </mxCell>
        <mxCell id="KnPEYLReO1t2_3ygM1mG-25" value="Systeme de marché" style="swimlane;whiteSpace=wrap;html=1;" vertex="1" parent="1">
          <mxGeometry x="365" y="540" width="300" height="200" as="geometry" />
        </mxCell>
        <mxCell id="KnPEYLReO1t2_3ygM1mG-26" value="&lt;p style=&quot;margin:0px;margin-top:4px;text-align:center;&quot;&gt;&lt;b&gt;Item&lt;/b&gt;&lt;/p&gt;&lt;hr size=&quot;1&quot; style=&quot;border-style:solid;&quot;&gt;&lt;p style=&quot;margin:0px;margin-left:4px;&quot;&gt;+ quantitéDemandée: int&lt;/p&gt;&lt;p style=&quot;margin:0px;margin-left:4px;&quot;&gt;+ quantitéMoyenneJournalière: int&lt;/p&gt;&lt;hr size=&quot;1&quot; style=&quot;border-style:solid;&quot;&gt;&lt;p style=&quot;margin:0px;margin-left:4px;&quot;&gt;+ prixItem(): float&lt;/p&gt;" style="verticalAlign=top;align=left;overflow=fill;html=1;whiteSpace=wrap;" vertex="1" parent="KnPEYLReO1t2_3ygM1mG-25">
          <mxGeometry x="40" y="80" width="220" height="90" as="geometry" />
        </mxCell>
      </root>
    </mxGraphModel>
  </diagram>
</mxfile>
